<svg width="120" height="103" viewBox="0 0 120 103" fill="none" xmlns="http://www.w3.org/2000/svg">
<path d="M76.6838 91.5208L76.681 91.5231C73.5452 93.9933 70.6226 96.2607 67.7697 97.9233C64.9161 99.5864 62.3675 100.5 60 100.5C57.6331 100.5 55.0847 99.5854 52.2303 97.9218C49.3765 96.2586 46.454 93.9926 43.3167 91.5272C41.6044 90.1808 39.8488 88.8312 38.0729 87.466C30.5404 81.6757 22.6421 75.6042 16.1334 68.2965C8.17574 59.362 2.5 48.7795 2.5 35.0143C2.5 21.4056 10.2141 9.88582 20.9119 5.0097C31.4539 0.204591 45.3415 1.6711 58.2011 14.9959L60 16.8599L61.7989 14.9959C74.6582 1.67139 88.5456 0.207552 99.0878 5.01477C109.786 9.89313 117.5 21.4147 117.5 35.0203C117.5 48.7826 111.826 59.3651 103.869 68.2987C97.3493 75.6187 89.434 81.6982 81.888 87.4941C80.1256 88.8478 78.3834 90.1859 76.6838 91.5208Z" stroke="white" stroke-width="5"/>
</svg>
