<svg width="393" height="349" viewBox="0 0 393 349" fill="none" xmlns="http://www.w3.org/2000/svg">
<path d="M-47 347C-1.27991 340.845 87.9954 286.189 138.111 239.073C139.175 237.917 140.228 236.775 141.27 235.648M141.27 235.648C179.88 193.882 203.345 171.526 203.345 117.587C203.345 77.796 158.65 48.5992 119.711 56.1028C83.7092 63.0404 64.5124 92.4732 66.7427 133.879C68.4479 165.538 100.683 203.628 141.27 235.648ZM141.27 235.648C153.766 245.507 167.053 254.79 180.485 263.134C212.53 283.038 269.695 300.064 269.695 300.064C269.695 300.064 308.87 251.083 329.729 196.158M329.729 196.158C332.346 189.266 334.676 182.28 336.603 175.285C353.887 112.552 353.887 65.5499 331.027 35.3346C308.167 5.11925 285.535 -3.38511 252.968 5.1192C219.163 13.9469 205.018 50.9365 208.921 86.8125C212.824 122.688 239.587 150.6 283.634 175.285C296.827 182.679 312.722 189.804 329.729 196.158ZM329.729 196.158C369.503 211.019 415.365 221.662 447 221.662" stroke="white" stroke-opacity="0.7" stroke-width="3"/>
</svg>
