<svg width="172" height="63" viewBox="0 0 172 63" fill="none" xmlns="http://www.w3.org/2000/svg">
<path d="M32.0625 60.3906L35.7188 56.7344C41.0625 51.2344 43.9375 44.6875 44.3438 37.0938H2.90627C2.53127 37.0938 2.20315 36.9688 1.9219 36.7188C1.6719 36.4375 1.5469 36.125 1.5469 35.7812C1.5469 35.4062 1.6719 35.0938 1.9219 34.8438C2.20315 34.5625 2.53127 34.4219 2.90627 34.4219H47.0625V35.7812C47.0625 44.4062 43.9219 52.0156 37.6406 58.6094L33.9375 62.3125C33.6563 62.5625 33.3438 62.6875 33 62.6875C32.6563 62.6875 32.3438 62.5625 32.0625 62.3125C31.8125 62 31.6875 61.6719 31.6875 61.3281C31.6875 61.0156 31.8125 60.7031 32.0625 60.3906ZM1.31252 32.0312C1.00002 32.0312 0.71877 31.9219 0.46877 31.7031C0.18752 31.4531 0.0312703 31.1562 2.03452e-05 30.8125C-0.0312297 30.4375 0.0781454 30.1094 0.328145 29.8281L5.1094 24.4375C9.7344 19 12.2188 12.0156 12.5625 3.48438H3.4219C3.07815 3.48438 2.76565 3.35938 2.4844 3.10938C2.2344 2.82812 2.1094 2.5 2.1094 2.125C2.1094 1.78125 2.2344 1.48438 2.4844 1.23438C2.76565 0.953125 3.07815 0.8125 3.4219 0.8125H37.8281C38.2031 0.8125 38.5156 0.953125 38.7656 1.23438C39.0469 1.48438 39.1875 1.78125 39.1875 2.125C39.1875 2.5 39.0469 2.82812 38.7656 3.10938C38.5156 3.35938 38.2031 3.48438 37.8281 3.48438H27.6094C27.5469 5.60938 27.3281 7.6875 26.9531 9.71875C30.9844 10.625 33.9219 13.6094 35.7656 18.6719L39.7031 30.25C39.7969 30.625 39.7656 30.9688 39.6094 31.2812C39.4531 31.5938 39.2031 31.8125 38.8594 31.9375C38.7031 32 38.5625 32.0312 38.4375 32.0312C37.875 32.0312 37.4531 31.7344 37.1719 31.1406L33.2813 19.5156C31.75 15.4219 29.4531 13.0312 26.3906 12.3438C25.0469 17.8125 22.7344 22.4375 19.4531 26.2188L14.6719 31.5625C14.3906 31.875 14.0625 32.0312 13.6875 32.0312C13.375 32.0312 13.0781 31.9219 12.7969 31.7031C12.5469 31.4531 12.4063 31.1562 12.375 30.8125C12.3438 30.4375 12.4531 30.1094 12.7031 29.8281L17.4375 24.4375C18.75 22.9688 19.8906 21.3125 20.8594 19.4688C19.3594 15.4062 17.0781 13.0312 14.0156 12.3438C12.6719 17.8125 10.3594 22.4375 7.07815 26.2188L2.34377 31.5625C2.03127 31.875 1.68752 32.0312 1.31252 32.0312ZM24.9375 3.48438H15.2344C15.1719 5.60938 14.9531 7.6875 14.5781 9.71875C17.8281 10.4375 20.4219 12.6094 22.3594 16.2344C23.9219 12.3281 24.7813 8.07812 24.9375 3.48438ZM54.9844 15.7656C55.3281 15.7656 55.625 15.9062 55.875 16.1875C56.1563 16.4375 56.2969 16.75 56.2969 17.125C56.2969 17.4688 56.1563 17.7812 55.875 18.0625C55.625 18.3125 55.3281 18.4375 54.9844 18.4375H46.9688V30.8125C46.9688 31.1875 46.8438 31.5156 46.5938 31.7969C46.3438 32.0469 46.0313 32.1719 45.6563 32.1719C45.2813 32.1719 44.9688 32.0469 44.7188 31.7969C44.4688 31.5156 44.3438 31.1875 44.3438 30.8125V2.125C44.3438 1.78125 44.4688 1.48438 44.7188 1.23438C44.9688 0.953125 45.2813 0.8125 45.6563 0.8125C46.0313 0.8125 46.3438 0.953125 46.5938 1.23438C46.8438 1.48438 46.9688 1.78125 46.9688 2.125V15.7656H54.9844Z" fill="black"/>
<path d="M91.7813 60.3906L95.4375 56.7344C100.781 51.2344 103.656 44.6875 104.063 37.0938H62.625C62.25 37.0938 61.9219 36.9688 61.6406 36.7188C61.3906 36.4375 61.2656 36.125 61.2656 35.7812C61.2656 35.4062 61.3906 35.0938 61.6406 34.8438C61.9219 34.5625 62.25 34.4219 62.625 34.4219H106.781V35.7812C106.781 44.4062 103.641 52.0156 97.3594 58.6094L93.6563 62.3125C93.375 62.5625 93.0625 62.6875 92.7188 62.6875C92.375 62.6875 92.0625 62.5625 91.7813 62.3125C91.5313 62 91.4063 61.6719 91.4063 61.3281C91.4063 61.0156 91.5313 60.7031 91.7813 60.3906ZM61.0313 32.0312C60.7188 32.0312 60.4375 31.9219 60.1875 31.7031C59.9063 31.4531 59.75 31.1562 59.7188 30.8125C59.6875 30.4375 59.7969 30.1094 60.0469 29.8281L64.8281 24.4375C69.4531 19 71.9375 12.0156 72.2813 3.48438H63.1406C62.7969 3.48438 62.4844 3.35938 62.2031 3.10938C61.9531 2.82812 61.8281 2.5 61.8281 2.125C61.8281 1.78125 61.9531 1.48438 62.2031 1.23438C62.4844 0.953125 62.7969 0.8125 63.1406 0.8125H97.5469C97.9219 0.8125 98.2344 0.953125 98.4844 1.23438C98.7656 1.48438 98.9063 1.78125 98.9063 2.125C98.9063 2.5 98.7656 2.82812 98.4844 3.10938C98.2344 3.35938 97.9219 3.48438 97.5469 3.48438H87.3281C87.2656 5.60938 87.0469 7.6875 86.6719 9.71875C90.7031 10.625 93.6406 13.6094 95.4844 18.6719L99.4219 30.25C99.5156 30.625 99.4844 30.9688 99.3281 31.2812C99.1719 31.5938 98.9219 31.8125 98.5781 31.9375C98.4219 32 98.2813 32.0312 98.1563 32.0312C97.5938 32.0312 97.1719 31.7344 96.8906 31.1406L93 19.5156C91.4688 15.4219 89.1719 13.0312 86.1094 12.3438C84.7656 17.8125 82.4531 22.4375 79.1719 26.2188L74.3906 31.5625C74.1094 31.875 73.7813 32.0312 73.4063 32.0312C73.0938 32.0312 72.7969 31.9219 72.5156 31.7031C72.2656 31.4531 72.125 31.1562 72.0938 30.8125C72.0625 30.4375 72.1719 30.1094 72.4219 29.8281L77.1563 24.4375C78.4688 22.9688 79.6094 21.3125 80.5781 19.4688C79.0781 15.4062 76.7969 13.0312 73.7344 12.3438C72.3906 17.8125 70.0781 22.4375 66.7969 26.2188L62.0625 31.5625C61.75 31.875 61.4063 32.0312 61.0313 32.0312ZM84.6563 3.48438H74.9531C74.8906 5.60938 74.6719 7.6875 74.2969 9.71875C77.5469 10.4375 80.1406 12.6094 82.0781 16.2344C83.6406 12.3281 84.5 8.07812 84.6563 3.48438ZM114.703 15.7656C115.047 15.7656 115.344 15.9062 115.594 16.1875C115.875 16.4375 116.016 16.75 116.016 17.125C116.016 17.4688 115.875 17.7812 115.594 18.0625C115.344 18.3125 115.047 18.4375 114.703 18.4375H106.688V30.8125C106.688 31.1875 106.563 31.5156 106.313 31.7969C106.063 32.0469 105.75 32.1719 105.375 32.1719C105 32.1719 104.688 32.0469 104.438 31.7969C104.188 31.5156 104.063 31.1875 104.063 30.8125V2.125C104.063 1.78125 104.188 1.48438 104.438 1.23438C104.688 0.953125 105 0.8125 105.375 0.8125C105.75 0.8125 106.063 0.953125 106.313 1.23438C106.563 1.48438 106.688 1.78125 106.688 2.125V15.7656H114.703Z" fill="black"/>
<path d="M117.984 28.2812C117.609 28.2812 117.281 28.1562 117 27.9062C116.75 27.6562 116.625 27.3438 116.625 26.9688C116.625 26.5938 116.75 26.2812 117 26.0312C117.281 25.7812 117.609 25.6562 117.984 25.6562H127.313L133.734 19.1875C137.891 14.9688 140.156 9.92188 140.531 4.04688H121.453C121.109 4.04688 120.797 3.92188 120.516 3.67188C120.266 3.42188 120.141 3.10938 120.141 2.73438C120.141 2.35938 120.266 2.04688 120.516 1.79688C120.797 1.54688 121.109 1.42188 121.453 1.42188H165.141V9.85938C165.141 15.5469 163.5 20.8125 160.219 25.6562H170.063C170.438 25.6562 170.75 25.7812 171 26.0312C171.25 26.2812 171.375 26.5938 171.375 26.9688C171.375 27.3438 171.25 27.6562 171 27.9062C170.75 28.1562 170.438 28.2812 170.063 28.2812H144.141V28.9375C144.141 29.5938 144.078 30.3906 143.953 31.3281C143.828 32.2344 143.641 33.1094 143.391 33.9531H157.078C160.828 33.9531 164.031 35.2812 166.688 37.9375C169.344 40.5938 170.672 43.7969 170.672 47.5469C170.672 51.7969 169.172 55.4219 166.172 58.4219C163.172 61.4219 159.547 62.9219 155.297 62.9219H132.891C128.891 62.9219 125.469 61.5 122.625 58.6562C119.813 55.8438 118.406 52.4375 118.406 48.4375C118.406 44.4375 119.813 41.0312 122.625 38.2188C125.469 35.375 128.891 33.9531 132.891 33.9531H140.531C140.781 33.5156 141 32.8125 141.188 31.8438C141.375 30.875 141.469 29.9062 141.469 28.9375V28.2812H117.984ZM168.047 47.5469C168.047 44.5156 166.969 41.9375 164.813 39.8125C162.688 37.6875 160.109 36.625 157.078 36.625H132.891C129.641 36.625 126.859 37.7812 124.547 40.0938C122.234 42.4062 121.078 45.1875 121.078 48.4375C121.078 51.6875 122.234 54.4688 124.547 56.7812C126.859 59.0938 129.641 60.25 132.891 60.25H155.297C158.828 60.25 161.828 59.0156 164.297 56.5469C166.797 54.0469 168.047 51.0469 168.047 47.5469ZM135.609 21.0625L131.063 25.6562H157.688C157.531 25.2188 157.578 24.8125 157.828 24.4375C160.953 19.9688 162.516 15.1094 162.516 9.85938V4.04688H143.203C142.797 10.6406 140.266 16.3125 135.609 21.0625Z" fill="black"/>
</svg>
