<svg width="393" height="421" viewBox="0 0 393 421" fill="none" xmlns="http://www.w3.org/2000/svg">
<path d="M-48.4082 302.202C-6.94467 307.78 84.2475 281.365 139.381 252.158C140.589 251.402 141.784 250.656 142.966 249.919M142.966 249.919C186.754 222.634 212.639 208.7 225.579 161.506C235.124 126.69 203.037 90.4269 167.181 87.655C134.029 85.0922 110.179 106.241 102.197 143.005C96.0936 171.114 115.15 212.17 142.966 249.919ZM142.966 249.919C151.53 261.541 160.924 272.85 170.67 283.371C193.922 308.471 239.835 337.075 239.835 337.075C239.835 337.075 285.847 303.613 317.266 260.558M317.266 260.558C321.209 255.155 324.922 249.601 328.285 243.943C358.451 193.198 369.726 152.074 356.981 120.155C344.236 88.2366 326.482 75.3688 295.959 75.0004C264.275 74.618 243.03 103.591 237.838 135.916C232.645 168.242 249.356 199.082 281.959 231.242C291.724 240.875 303.916 250.92 317.266 260.558ZM317.266 260.558C348.488 283.098 386.046 303.408 413.714 310.993" stroke="white" stroke-opacity="0.7" stroke-width="3"/>
<path d="M65 172.167C65 236.291 118.064 270.456 156.898 301.047C170.6 311.834 183.8 322 197 322C210.2 322 223.4 311.847 237.102 301.034C275.949 270.469 329 236.291 329 172.181C329 108.07 256.4 62.5654 197 124.223C137.6 62.5654 65 108.044 65 172.167Z" fill="white"/>
</svg>
